<?xml version="1.0" encoding="UTF-8"?>
<svg viewBox="0 0 100 100" xmlns="http://www.w3.org/2000/svg">
  <path d="M25 55 L50 43 L75 55 L50 67 Z" fill="#FF7F50" stroke="#FFF" stroke-width="2"/>
  
  <path d="M25 55 V80 L50 92 V67 Z" fill="#FF6347" stroke="#FFF" stroke-width="2"/>
  <path d="M75 55 V80 L50 92 V67 Z" fill="#FF4500" stroke="#FFF" stroke-width="2"/>
  <path d="M25 55 L50 43 L50 67 L25 55 Z" fill="#FF8C00" stroke="#FFF" stroke-width="2"/>
  <path d="M75 55 L50 43 L50 67 L75 55 Z" fill="#FFD700" stroke="#FFF" stroke-width="2"/>

  <g fill="#FFF">
    <path d="M45 50L46 52L48 52L46.5 53L47 55L45 54L43 55L43.5 53L42 52L44 52Z"/>
    <path d="M55 55L56 57L58 57L56.5 58L57 60L55 59L53 60L53.5 58L52 57L54 57Z" fill="#00FF7F"/>
    <path d="M35 60L36 62L38 62L36.5 63L37 65L35 64L33 65L33.5 63L32 62L34 62Z" fill="#1E90FF"/>
    <path d="M65 60L66 62L68 62L66.5 63L67 65L65 64L63 65L63.5 63L62 62L64 62Z" fill="#FF00FF"/>
    <path d="M50 50L51 52L53 52L51.5 53L52 55L50 54L48 55L48.5 53L47 52L49 52Z" fill="#FFFF00"/>
  </g>

  <line x1="30" y1="45" x2="35" y2="48" stroke="#FF0000" stroke-width="2" stroke-linecap="round"/>
  <line x1="70" y1="45" x2="65" y2="48" stroke="#00FF00" stroke-width="2" stroke-linecap="round"/>
  <line x1="50" y1="40" x2="50" y2="45" stroke="#0000FF" stroke-width="2" stroke-linecap="round"/>
</svg>
